<?xml version="1.0" encoding="UTF-8" standalone="no"?>
<svg
   id="Capa_1"
   width="740.74402"
   height="109.509"
   version="1.1"
   viewBox="0 0 740.74404 109.50901"
   sodipodi:docname="faculty.svg"
   inkscape:version="1.4.4 (dcaf3e7, 2026-05-05)"
   xmlns:inkscape="http://www.inkscape.org/namespaces/inkscape"
   xmlns:sodipodi="http://sodipodi.sourceforge.net/DTD/sodipodi-0.dtd"
   xmlns="http://www.w3.org/2000/svg"
   xmlns:svg="http://www.w3.org/2000/svg">
  <sodipodi:namedview
     id="namedview57"
     pagecolor="#ffffff"
     bordercolor="#000000"
     borderopacity="0.25"
     inkscape:showpageshadow="2"
     inkscape:pageopacity="0.0"
     inkscape:pagecheckerboard="0"
     inkscape:deskcolor="#d1d1d1"
     inkscape:zoom="0.52422247"
     inkscape:cx="374.84086"
     inkscape:cy="152.60696"
     inkscape:window-width="930"
     inkscape:window-height="801"
     inkscape:window-x="730"
     inkscape:window-y="50"
     inkscape:window-maximized="0"
     inkscape:current-layer="Capa_1" />
  <!-- Generator: Adobe Illustrator 29.6.1, SVG Export Plug-In . SVG Version: 2.1.1 Build 9)  -->
  <defs
     id="defs1">
    <style
       id="style1">
      .st0 {
        fill: #22264e;
      }

      .st1 {
        fill: #23264e;
      }

      .st2, .st3 {
        fill: #1a171c;
      }

      .st3 {
        fill-rule: evenodd;
      }
    </style>
  </defs>
  <g
     id="matematiques"
     transform="matrix(0.79524828,0,0,0.79524828,-404.79409,-11.755363)">
    <g
       id="g30">
      <path
         class="st1"
         d="m 734.607,27.25 v 12.749 h 21.1 v 7.518 h -21.1 V 66.99 H 725.53 V 19.699 h 31.322 v 7.554 h -22.245 z"
         id="path1" />
      <path
         class="st1"
         d="m 769.323,43.466 h -8.107 c 0.023,-3.233 0.566,-5.519 1.63,-6.861 1.108,-1.362 2.979,-2.263 5.613,-2.701 1.593,-0.278 3.94,-0.415 7.032,-0.415 4.666,0 8.003,0.495 10.014,1.489 2.658,1.295 4.17,3.545 4.539,6.758 0.184,1.593 0.278,2.795 0.278,3.605 v 21.656 h -8.04 l 0.382,-4.539 -0.208,-0.033 c -0.74,1.57 -1.65,2.714 -2.738,3.431 -0.994,0.623 -2.045,1.028 -3.153,1.212 -1.339,0.208 -2.888,0.311 -4.642,0.311 -2.47,0 -4.442,-0.191 -5.908,-0.572 -1.466,-0.381 -2.698,-1.034 -3.688,-1.958 -1.64,-1.503 -2.46,-4.03 -2.46,-7.588 0,-3.903 0.89,-6.584 2.668,-8.04 1.941,-1.593 5.128,-2.39 9.563,-2.39 3.511,0 6.075,0.368 7.692,1.108 0.947,0.415 1.734,1.305 2.356,2.668 h 0.137 v -5.369 c 0,-2.102 -0.288,-3.638 -0.867,-4.609 -0.763,-1.248 -2.691,-1.871 -5.787,-1.871 -3.257,0 -5.198,0.599 -5.821,1.801 -0.278,0.556 -0.438,1.523 -0.485,2.912 v -0.003 z m 5.613,8.662 c -2.842,0 -4.76,0.368 -5.75,1.108 -0.763,0.556 -1.145,1.734 -1.145,3.535 0,2.079 0.485,3.417 1.456,4.02 0.994,0.599 2.865,0.9 5.613,0.9 3.002,0 5.034,-0.438 6.098,-1.315 0.763,-0.623 1.145,-1.777 1.145,-3.464 0,-1.687 -0.348,-2.865 -1.041,-3.464 -1.018,-0.877 -3.143,-1.315 -6.376,-1.315 V 52.13 Z"
         id="path2" />
      <path
         class="st1"
         d="m 819.322,54.344 h 7.899 c 0,2.701 -0.161,4.76 -0.485,6.169 -0.669,2.912 -2.437,4.897 -5.302,5.958 -1.663,0.599 -4.468,0.9 -8.418,0.9 -4.321,0 -7.451,-0.392 -9.389,-1.178 -3.21,-1.292 -5.208,-3.719 -5.995,-7.277 -0.415,-1.848 -0.623,-4.699 -0.623,-8.558 0,-4.067 0.264,-7.046 0.797,-8.94 0.924,-3.374 2.875,-5.623 5.854,-6.758 2.032,-0.787 4.816,-1.178 8.351,-1.178 4.642,0 8.06,0.532 10.255,1.593 2.403,1.155 3.836,3.417 4.298,6.791 0.114,0.924 0.184,2.149 0.208,3.672 h -7.866 c 0,-1.108 -0.07,-1.975 -0.208,-2.597 -0.278,-1.339 -1.004,-2.239 -2.182,-2.701 -0.83,-0.325 -2.299,-0.485 -4.401,-0.485 -3.096,0 -5.047,0.646 -5.854,1.941 -0.716,1.178 -1.074,4.214 -1.074,9.111 0,4.897 0.589,7.923 1.767,9.077 0.83,0.81 2.761,1.212 5.787,1.212 1.985,0 3.454,-0.184 4.401,-0.556 1.178,-0.485 1.871,-1.674 2.079,-3.568 0.07,-0.576 0.104,-1.456 0.104,-2.634 l -0.003,0.007 z"
         id="path3" />
      <path
         class="st1"
         d="M 862.455,33.867 V 66.99 h -8.04 l 0.452,-5.683 -0.137,-0.033 c -0.669,1.734 -1.607,3.059 -2.805,3.983 -1.824,1.409 -4.458,2.112 -7.899,2.112 -4.99,0 -8.314,-1.617 -9.978,-4.85 -0.763,-1.479 -1.145,-3.615 -1.145,-6.41 V 33.864 h 8.04 v 20.337 c 0,2.356 0.208,3.903 0.623,4.642 0.763,1.386 2.507,2.079 5.231,2.079 3.535,0 5.831,-1.108 6.895,-3.327 0.485,-1.041 0.726,-2.922 0.726,-5.646 V 33.861 h 8.04 l -0.003,0.007 z"
         id="path4" />
      <path
         class="st1"
         d="m 878.498,19.699 v 47.294 h -8.04 V 19.699 Z"
         id="path5" />
      <path
         class="st1"
         d="m 907.671,33.867 v 6.065 h -12.645 v 16.595 c 0,1.503 0.114,2.564 0.348,3.186 0.368,1.041 1.419,1.56 3.153,1.56 1.734,0 2.795,-0.472 3.257,-1.419 0.368,-0.81 0.556,-2.239 0.556,-4.298 0,-0.301 -0.013,-0.74 -0.034,-1.315 h 6.721 v 1.904 c 0,2.611 -0.174,4.468 -0.519,5.58 -0.693,2.403 -2.149,4.02 -4.365,4.85 -1.503,0.556 -3.638,0.83 -6.41,0.83 -3.417,0 -5.854,-0.452 -7.31,-1.352 -1.871,-1.155 -2.969,-2.899 -3.29,-5.231 -0.094,-0.646 -0.137,-1.697 -0.137,-3.153 V 39.93 h -4.298 v -6.065 h 4.298 v -7.414 h 8.04 v 7.414 h 12.645 l -0.01,0.003 z"
         id="path6" />
      <path
         class="st1"
         d="m 922.709,43.466 h -8.107 c 0.023,-3.233 0.566,-5.519 1.63,-6.861 1.108,-1.362 2.979,-2.263 5.613,-2.701 1.593,-0.278 3.94,-0.415 7.032,-0.415 4.666,0 8.003,0.495 10.014,1.489 2.658,1.295 4.17,3.545 4.539,6.758 0.184,1.593 0.278,2.795 0.278,3.605 v 21.656 h -8.04 l 0.382,-4.539 -0.208,-0.033 c -0.74,1.57 -1.65,2.714 -2.738,3.431 -0.994,0.623 -2.045,1.028 -3.153,1.212 -1.339,0.208 -2.888,0.311 -4.642,0.311 -2.47,0 -4.442,-0.191 -5.908,-0.572 -1.466,-0.381 -2.698,-1.034 -3.688,-1.958 -1.64,-1.503 -2.46,-4.03 -2.46,-7.588 0,-3.903 0.89,-6.584 2.668,-8.04 1.941,-1.593 5.128,-2.39 9.563,-2.39 3.511,0 6.075,0.368 7.692,1.108 0.947,0.415 1.734,1.305 2.356,2.668 h 0.137 v -5.369 c 0,-2.102 -0.288,-3.638 -0.867,-4.609 -0.763,-1.248 -2.691,-1.871 -5.787,-1.871 -3.257,0 -5.198,0.599 -5.821,1.801 -0.278,0.556 -0.438,1.523 -0.485,2.912 v -0.003 z m 5.613,8.662 c -2.842,0 -4.76,0.368 -5.75,1.108 -0.763,0.556 -1.145,1.734 -1.145,3.535 0,2.079 0.485,3.417 1.456,4.02 0.994,0.599 2.865,0.9 5.613,0.9 3.002,0 5.034,-0.438 6.098,-1.315 0.763,-0.623 1.145,-1.777 1.145,-3.464 0,-1.687 -0.348,-2.865 -1.041,-3.464 -1.018,-0.877 -3.143,-1.315 -6.376,-1.315 V 52.13 Z"
         id="path7" />
      <path
         class="st1"
         d="m 972.982,33.867 v 6.065 h -12.645 v 16.595 c 0,1.503 0.114,2.564 0.348,3.186 0.368,1.041 1.419,1.56 3.153,1.56 1.734,0 2.795,-0.472 3.257,-1.419 0.368,-0.81 0.556,-2.239 0.556,-4.298 0,-0.301 -0.013,-0.74 -0.034,-1.315 h 6.721 v 1.904 c 0,2.611 -0.174,4.468 -0.519,5.58 -0.693,2.403 -2.149,4.02 -4.365,4.85 -1.503,0.556 -3.638,0.83 -6.41,0.83 -3.417,0 -5.854,-0.452 -7.31,-1.352 -1.871,-1.155 -2.969,-2.899 -3.29,-5.231 -0.094,-0.646 -0.137,-1.697 -0.137,-3.153 V 39.93 h -4.298 v -6.065 h 4.298 v -7.414 h 8.04 v 7.414 h 12.645 l -0.01,0.003 z"
         id="path8" />
      <path
         class="st1"
         d="m 1026.06,19.699 v 47.294 h -7.829 l 0.311,-5.335 -0.174,-0.033 c -0.763,1.871 -1.757,3.233 -2.979,4.087 -1.64,1.131 -4.02,1.697 -7.136,1.697 -4.619,0 -7.912,-1.028 -9.874,-3.083 -1.503,-1.57 -2.403,-3.648 -2.701,-6.236 -0.254,-2.216 -0.382,-4.77 -0.382,-7.658 0,-4.803 0.288,-8.107 0.867,-9.911 0.971,-3.049 2.795,-5.081 5.476,-6.098 1.663,-0.623 3.789,-0.934 6.376,-0.934 3.21,0 5.67,0.579 7.38,1.734 1.061,0.716 1.894,1.848 2.494,3.394 l 0.137,-0.033 V 19.7 h 8.04 -0.01 z m -15.728,20.162 c -2.681,0 -4.458,0.485 -5.335,1.456 -1.061,1.155 -1.593,4.077 -1.593,8.766 0,4.689 0.485,7.899 1.456,9.218 0.9,1.248 2.771,1.871 5.613,1.871 3.163,0 5.231,-0.669 6.202,-2.008 0.485,-0.669 0.827,-1.697 1.021,-3.083 0.198,-1.386 0.295,-3.464 0.295,-6.236 0,-2.447 -0.117,-4.261 -0.348,-5.439 -0.231,-1.178 -0.659,-2.125 -1.282,-2.842 -0.994,-1.131 -3.002,-1.697 -6.028,-1.697 V 39.86 Z"
         id="path9" />
      <path
         class="st1"
         d="m 1055.199,56.389 h 7.969 v 0.867 c 0,3.558 -0.934,6.085 -2.805,7.588 -1.456,1.155 -3.27,1.871 -5.439,2.149 -1.988,0.254 -4.11,0.382 -6.376,0.382 -3.648,0 -6.507,-0.318 -8.575,-0.954 -2.068,-0.636 -3.668,-1.68 -4.8,-3.136 -1.178,-1.503 -1.904,-3.558 -2.182,-6.169 -0.231,-2.149 -0.348,-4.445 -0.348,-6.895 0,-4.549 0.348,-7.829 1.041,-9.84 1.084,-3.119 3.304,-5.161 6.654,-6.132 1.894,-0.532 4.539,-0.797 7.936,-0.797 3.096,0 5.58,0.261 7.451,0.78 1.871,0.519 3.337,1.346 4.401,2.477 1.546,1.663 2.47,3.939 2.771,6.825 0.184,1.64 0.278,3.478 0.278,5.509 v 2.805 h -22.415 c -0.023,0.579 -0.034,1.018 -0.034,1.315 0,3.417 0.485,5.646 1.456,6.687 0.971,1.041 2.969,1.56 5.995,1.56 3.605,0 5.74,-0.556 6.41,-1.663 0.392,-0.623 0.599,-1.744 0.623,-3.36 l -0.01,0.003 z m 0.071,-9.492 c 0,-0.646 -0.013,-1.074 -0.034,-1.282 -0.023,-2.403 -0.405,-4.006 -1.145,-4.816 -0.623,-0.669 -1.513,-1.084 -2.668,-1.248 -0.924,-0.114 -2.022,-0.174 -3.29,-0.174 -2.216,0 -3.789,0.184 -4.713,0.556 -1.433,0.599 -2.263,2.008 -2.494,4.227 -0.047,0.556 -0.08,1.466 -0.104,2.738 h 14.449 v 0 z"
         id="path10" />
      <path
         class="st1"
         d="m 754.737,121.409 h 8.974 v 1.593 c 0.023,4.642 -0.428,7.842 -1.352,9.596 -1.57,3.073 -4.401,4.954 -8.488,5.646 -1.757,0.301 -5.369,0.452 -10.844,0.452 -4.02,0 -6.992,-0.208 -8.923,-0.623 -1.928,-0.415 -3.655,-1.235 -5.181,-2.46 -2.47,-1.965 -3.973,-4.783 -4.505,-8.455 -0.462,-3.14 -0.693,-8.568 -0.693,-16.283 0,-4.666 0.325,-8.247 0.971,-10.741 0.763,-3.026 2.564,-5.382 5.405,-7.069 2.125,-1.269 4.967,-2.045 8.522,-2.323 1.57,-0.114 4.251,-0.174 8.04,-0.174 4.388,0 7.494,0.301 9.322,0.9 4.067,1.315 6.4,4.458 6.999,9.425 0.137,1.061 0.241,3.002 0.311,5.821 h -8.974 c -0.023,-0.623 -0.034,-1.018 -0.034,-1.178 -0.07,-3.163 -0.706,-5.175 -1.904,-6.028 -1.084,-0.763 -3.478,-1.145 -7.173,-1.145 -3.143,0 -5.533,0.161 -7.173,0.485 -2.681,0.509 -4.214,2.253 -4.609,5.231 -0.184,1.456 -0.278,4.251 -0.278,8.384 0,6.975 0.198,11.424 0.589,13.338 0.348,1.71 1.041,2.945 2.079,3.709 1.292,0.924 4.03,1.386 8.21,1.386 4.873,0 7.922,-0.532 9.148,-1.593 1.061,-0.947 1.593,-2.805 1.593,-5.58 0,-0.532 -0.013,-1.305 -0.034,-2.323 l 0.003,0.007 z"
         id="path11" />
      <path
         class="st1"
         d="m 777.155,90.991 v 6.861 h -8.04 v -6.861 z m 0,14.168 v 33.123 h -8.04 v -33.123 z"
         id="path12" />
      <path
         class="st1"
         d="m 806.292,127.682 h 7.969 v 0.867 c 0,3.558 -0.934,6.085 -2.805,7.588 -1.456,1.155 -3.27,1.871 -5.439,2.149 -1.988,0.254 -4.11,0.382 -6.376,0.382 -3.648,0 -6.507,-0.318 -8.575,-0.954 -2.068,-0.636 -3.668,-1.68 -4.8,-3.136 -1.178,-1.503 -1.904,-3.558 -2.182,-6.169 -0.231,-2.149 -0.348,-4.445 -0.348,-6.895 0,-4.549 0.348,-7.829 1.041,-9.84 1.084,-3.119 3.304,-5.161 6.654,-6.132 1.894,-0.532 4.539,-0.797 7.936,-0.797 3.096,0 5.58,0.261 7.451,0.78 1.871,0.519 3.337,1.346 4.401,2.477 1.546,1.663 2.47,3.939 2.771,6.825 0.184,1.64 0.278,3.478 0.278,5.509 v 2.805 h -22.415 c -0.023,0.579 -0.034,1.018 -0.034,1.315 0,3.417 0.485,5.646 1.456,6.687 0.971,1.041 2.969,1.56 5.995,1.56 3.605,0 5.74,-0.556 6.41,-1.663 0.392,-0.623 0.599,-1.744 0.623,-3.36 l -0.01,0.003 z m -13.857,-36.795 11.259,7.38 -1.734,3.29 -12.404,-5.335 2.875,-5.335 h 0.003 z m 13.927,27.302 c 0,-0.646 -0.013,-1.074 -0.034,-1.282 -0.023,-2.403 -0.405,-4.006 -1.145,-4.816 -0.623,-0.669 -1.513,-1.084 -2.668,-1.248 -0.924,-0.114 -2.022,-0.174 -3.29,-0.174 -2.216,0 -3.789,0.184 -4.713,0.556 -1.433,0.599 -2.263,2.008 -2.494,4.227 -0.047,0.556 -0.08,1.466 -0.104,2.738 h 14.449 -0.003 z"
         id="path13" />
      <path
         class="st1"
         d="m 820.878,105.159 h 8.04 l -0.278,5.58 0.174,0.033 c 1.523,-3.996 4.944,-5.995 10.255,-5.995 5.311,0 8.893,1.433 10.533,4.298 0.763,1.339 1.145,3.558 1.145,6.654 v 22.556 h -8.04 V 118.33 c 0,-2.47 -0.208,-4.124 -0.623,-4.954 -0.693,-1.433 -2.437,-2.149 -5.231,-2.149 -3.374,0 -5.66,0.971 -6.861,2.912 -0.646,1.061 -0.971,2.564 -0.971,4.505 v 19.644 h -8.143 z"
         id="path14" />
      <path
         class="st1"
         d="m 879.643,125.637 h 7.899 c 0,2.701 -0.161,4.76 -0.485,6.169 -0.669,2.912 -2.437,4.897 -5.302,5.958 -1.663,0.599 -4.468,0.9 -8.418,0.9 -4.321,0 -7.451,-0.392 -9.389,-1.178 -3.21,-1.292 -5.208,-3.719 -5.995,-7.277 -0.415,-1.848 -0.623,-4.699 -0.623,-8.558 0,-4.067 0.264,-7.046 0.797,-8.94 0.924,-3.374 2.875,-5.623 5.854,-6.758 2.032,-0.787 4.816,-1.178 8.351,-1.178 4.642,0 8.06,0.532 10.255,1.593 2.403,1.155 3.836,3.417 4.298,6.791 0.114,0.924 0.184,2.149 0.208,3.672 h -7.866 c 0,-1.108 -0.07,-1.975 -0.208,-2.597 -0.278,-1.339 -1.004,-2.239 -2.182,-2.701 -0.83,-0.325 -2.299,-0.485 -4.401,-0.485 -3.096,0 -5.047,0.646 -5.854,1.941 -0.716,1.178 -1.074,4.214 -1.074,9.111 0,4.897 0.589,7.923 1.767,9.077 0.83,0.81 2.761,1.212 5.787,1.212 1.985,0 3.454,-0.184 4.401,-0.556 1.178,-0.485 1.871,-1.674 2.079,-3.568 0.07,-0.576 0.104,-1.456 0.104,-2.634 l -0.003,0.007 z"
         id="path15" />
      <path
         class="st1"
         d="m 901.398,90.991 v 6.861 h -8.04 v -6.861 z m 0,14.168 v 33.123 h -8.04 v -33.123 z"
         id="path16" />
      <path
         class="st1"
         d="m 930.538,127.682 h 7.969 v 0.867 c 0,3.558 -0.934,6.085 -2.805,7.588 -1.456,1.155 -3.27,1.871 -5.439,2.149 -1.988,0.254 -4.11,0.382 -6.376,0.382 -3.648,0 -6.507,-0.318 -8.575,-0.954 -2.068,-0.636 -3.668,-1.68 -4.8,-3.136 -1.178,-1.503 -1.904,-3.558 -2.182,-6.169 -0.231,-2.149 -0.348,-4.445 -0.348,-6.895 0,-4.549 0.348,-7.829 1.041,-9.84 1.084,-3.119 3.304,-5.161 6.654,-6.132 1.894,-0.532 4.539,-0.797 7.936,-0.797 3.096,0 5.58,0.261 7.451,0.78 1.871,0.519 3.337,1.346 4.401,2.477 1.546,1.663 2.47,3.939 2.771,6.825 0.184,1.64 0.278,3.478 0.278,5.509 v 2.805 h -22.415 c -0.023,0.579 -0.034,1.018 -0.034,1.315 0,3.417 0.485,5.646 1.456,6.687 0.971,1.041 2.969,1.56 5.995,1.56 3.605,0 5.74,-0.556 6.41,-1.663 0.392,-0.623 0.599,-1.744 0.623,-3.36 l -0.01,0.003 z m 0.07,-9.493 c 0,-0.646 -0.013,-1.074 -0.034,-1.282 -0.023,-2.403 -0.405,-4.006 -1.145,-4.816 -0.623,-0.669 -1.513,-1.084 -2.668,-1.248 -0.924,-0.114 -2.022,-0.174 -3.29,-0.174 -2.216,0 -3.789,0.184 -4.713,0.556 -1.433,0.599 -2.263,2.008 -2.494,4.227 -0.047,0.556 -0.08,1.466 -0.104,2.738 h 14.449 -0.003 z"
         id="path17" />
      <path
         class="st1"
         d="m 972.738,114.273 h -7.762 c -0.161,-1.456 -0.428,-2.403 -0.797,-2.842 -0.415,-0.556 -1.225,-0.9 -2.427,-1.041 -0.646,-0.07 -1.777,-0.104 -3.394,-0.104 -2.979,0 -4.84,0.254 -5.58,0.763 -0.74,0.509 -1.108,1.583 -1.108,3.223 0,1.988 0.623,3.166 1.871,3.535 0.556,0.161 2.785,0.335 6.687,0.519 3.789,0.184 6.259,0.405 7.414,0.659 2.494,0.532 4.227,1.72 5.198,3.568 0.763,1.409 1.145,3.233 1.145,5.476 0,3.672 -1.018,6.353 -3.049,8.04 -1.362,1.108 -3.016,1.814 -4.954,2.112 -2.196,0.348 -4.723,0.519 -7.588,0.519 -4.435,0 -7.621,-0.368 -9.563,-1.108 -2.45,-0.9 -4.006,-2.437 -4.676,-4.609 -0.368,-1.155 -0.556,-2.865 -0.556,-5.128 h 8.247 c -0.023,0.509 -0.034,0.89 -0.034,1.145 0,1.687 0.462,2.818 1.386,3.394 0.81,0.485 2.668,0.726 5.58,0.726 3.119,0 5.161,-0.348 6.132,-1.041 0.763,-0.556 1.145,-1.64 1.145,-3.257 0,-1.617 -0.325,-2.725 -0.971,-3.327 -0.599,-0.556 -1.861,-0.843 -3.775,-0.867 -5.821,-0.07 -9.817,-0.415 -11.989,-1.041 -2.216,-0.623 -3.742,-1.801 -4.572,-3.535 -0.623,-1.269 -0.934,-3.083 -0.934,-5.439 0,-3.903 1.004,-6.527 3.016,-7.866 1.339,-0.877 3.036,-1.433 5.094,-1.663 2.125,-0.231 4.411,-0.348 6.861,-0.348 4.274,0 7.323,0.335 9.148,1.004 2.912,1.084 4.505,3.247 4.783,6.48 0.023,0.415 0.034,1.098 0.034,2.045 l -0.013,0.007 z"
         id="path18" />
      <path
         class="st1"
         d="m 1053.502,90.991 v 47.294 h -8.974 v -25.779 c 0,-2.447 0.114,-5.958 0.348,-10.533 l 0.174,-3.501 h -0.278 l -1.074,3.29 c -1.593,4.944 -2.691,8.224 -3.29,9.84 l -10.393,26.679 h -8.177 l -10.5,-26.472 c -0.646,-1.663 -1.767,-4.944 -3.36,-9.84 l -1.074,-3.257 h -0.278 l 0.174,3.431 c 0.254,4.619 0.382,8.073 0.382,10.359 v 25.779 h -8.974 V 90.987 h 14.62 l 8.455,21.896 c 0.669,1.777 1.777,5.057 3.327,9.84 l 1.074,3.257 h 0.311 l 1.004,-3.257 c 1.456,-4.642 2.54,-7.899 3.257,-9.77 l 8.314,-21.967 h 14.935 v 0.003 z"
         id="path19" />
      <path
         class="st1"
         d="m 1069.819,114.759 h -8.107 c 0.023,-3.233 0.566,-5.519 1.63,-6.861 1.108,-1.362 2.979,-2.263 5.613,-2.701 1.593,-0.278 3.94,-0.415 7.032,-0.415 4.666,0 8.003,0.495 10.014,1.489 2.658,1.295 4.17,3.545 4.539,6.758 0.184,1.593 0.278,2.795 0.278,3.605 v 21.656 h -8.04 l 0.382,-4.539 -0.208,-0.033 c -0.74,1.57 -1.65,2.714 -2.738,3.431 -0.994,0.623 -2.045,1.028 -3.153,1.212 -1.339,0.208 -2.888,0.311 -4.642,0.311 -2.47,0 -4.442,-0.191 -5.908,-0.572 -1.466,-0.382 -2.698,-1.034 -3.688,-1.958 -1.64,-1.503 -2.46,-4.03 -2.46,-7.588 0,-3.903 0.89,-6.584 2.668,-8.04 1.941,-1.593 5.128,-2.39 9.563,-2.39 3.511,0 6.075,0.368 7.692,1.108 0.947,0.415 1.734,1.305 2.356,2.668 h 0.137 v -5.369 c 0,-2.102 -0.288,-3.638 -0.867,-4.609 -0.763,-1.248 -2.691,-1.871 -5.787,-1.871 -3.257,0 -5.198,0.599 -5.821,1.801 -0.278,0.556 -0.438,1.523 -0.485,2.912 v -0.003 z m 5.613,8.662 c -2.842,0 -4.76,0.368 -5.75,1.108 -0.763,0.556 -1.145,1.734 -1.145,3.535 0,2.079 0.485,3.417 1.456,4.02 0.994,0.599 2.865,0.9 5.613,0.9 3.002,0 5.034,-0.438 6.098,-1.315 0.763,-0.623 1.145,-1.777 1.145,-3.464 0,-1.687 -0.348,-2.865 -1.041,-3.464 -1.018,-0.877 -3.143,-1.315 -6.376,-1.315 v -0.003 z"
         id="path20" />
      <path
         class="st1"
         d="m 1120.092,105.159 v 6.065 h -12.645 v 16.595 c 0,1.503 0.114,2.564 0.348,3.186 0.368,1.041 1.419,1.56 3.153,1.56 1.734,0 2.795,-0.472 3.257,-1.419 0.368,-0.81 0.556,-2.239 0.556,-4.298 0,-0.301 -0.013,-0.74 -0.034,-1.315 h 6.721 v 1.904 c 0,2.611 -0.174,4.468 -0.519,5.58 -0.693,2.403 -2.149,4.02 -4.365,4.85 -1.503,0.556 -3.638,0.83 -6.41,0.83 -3.417,0 -5.854,-0.452 -7.31,-1.352 -1.871,-1.155 -2.969,-2.899 -3.29,-5.231 -0.094,-0.646 -0.137,-1.697 -0.137,-3.153 v -17.739 h -4.298 v -6.065 h 4.298 v -7.414 h 8.04 v 7.414 h 12.645 l -0.01,0.003 z"
         id="path21" />
      <path
         class="st1"
         d="m 1148.194,127.682 h 7.969 v 0.867 c 0,3.558 -0.934,6.085 -2.805,7.588 -1.456,1.155 -3.27,1.871 -5.439,2.149 -1.988,0.254 -4.11,0.382 -6.376,0.382 -3.648,0 -6.507,-0.318 -8.575,-0.954 -2.068,-0.636 -3.668,-1.68 -4.8,-3.136 -1.178,-1.503 -1.904,-3.558 -2.182,-6.169 -0.231,-2.149 -0.348,-4.445 -0.348,-6.895 0,-4.549 0.348,-7.829 1.041,-9.84 1.084,-3.119 3.304,-5.161 6.654,-6.132 1.894,-0.532 4.539,-0.797 7.936,-0.797 3.096,0 5.58,0.261 7.451,0.78 1.871,0.519 3.337,1.346 4.401,2.477 1.546,1.663 2.47,3.939 2.771,6.825 0.184,1.64 0.278,3.478 0.278,5.509 v 2.805 h -22.415 c -0.023,0.579 -0.034,1.018 -0.034,1.315 0,3.417 0.485,5.646 1.456,6.687 0.971,1.041 2.969,1.56 5.995,1.56 3.605,0 5.74,-0.556 6.41,-1.663 0.392,-0.623 0.599,-1.744 0.623,-3.36 l -0.01,0.003 z m 0.067,-9.493 c 0,-0.646 -0.013,-1.074 -0.034,-1.282 -0.023,-2.403 -0.405,-4.006 -1.145,-4.816 -0.623,-0.669 -1.513,-1.084 -2.668,-1.248 -0.924,-0.114 -2.022,-0.174 -3.29,-0.174 -2.216,0 -3.789,0.184 -4.713,0.556 -1.433,0.599 -2.263,2.008 -2.494,4.227 -0.047,0.556 -0.08,1.466 -0.104,2.738 h 14.449 v 0 z"
         id="path22" />
      <path
         class="st1"
         d="m 1162.781,105.159 h 8.04 l -0.208,5.094 0.174,0.033 c 0.716,-1.663 1.663,-2.899 2.842,-3.709 1.777,-1.202 4.17,-1.801 7.173,-1.801 6.028,0 9.378,2.045 10.048,6.132 h 0.174 c 0.693,-1.824 1.607,-3.153 2.738,-3.983 1.894,-1.433 4.468,-2.149 7.725,-2.149 4.897,0 8.187,1.339 9.874,4.02 0.994,1.546 1.489,4.067 1.489,7.554 v 21.933 h -8.04 v -20.2 c 0,-2.239 -0.231,-3.846 -0.693,-4.816 -0.646,-1.339 -2.286,-2.008 -4.92,-2.008 -3.535,0 -5.764,0.934 -6.687,2.805 -0.485,0.947 -0.726,2.564 -0.726,4.85 v 19.369 h -8.04 v -20.511 c 0,-2.309 -0.174,-3.812 -0.519,-4.505 -0.693,-1.339 -2.356,-2.008 -4.99,-2.008 -3.166,0 -5.302,0.89 -6.41,2.668 -0.669,1.084 -1.004,2.805 -1.004,5.161 v 19.195 h -8.04 v -33.126 z"
         id="path23" />
      <path
         class="st1"
         d="m 1229.163,114.759 h -8.107 c 0.023,-3.233 0.566,-5.519 1.63,-6.861 1.108,-1.362 2.979,-2.263 5.613,-2.701 1.593,-0.278 3.94,-0.415 7.032,-0.415 4.666,0 8.003,0.495 10.014,1.489 2.658,1.295 4.17,3.545 4.539,6.758 0.184,1.593 0.278,2.795 0.278,3.605 v 21.656 h -8.04 l 0.382,-4.539 -0.208,-0.033 c -0.74,1.57 -1.65,2.714 -2.738,3.431 -0.994,0.623 -2.045,1.028 -3.153,1.212 -1.339,0.208 -2.888,0.311 -4.642,0.311 -2.47,0 -4.442,-0.191 -5.908,-0.572 -1.466,-0.382 -2.698,-1.034 -3.688,-1.958 -1.64,-1.503 -2.46,-4.03 -2.46,-7.588 0,-3.903 0.89,-6.584 2.668,-8.04 1.941,-1.593 5.128,-2.39 9.563,-2.39 3.511,0 6.075,0.368 7.692,1.108 0.947,0.415 1.734,1.305 2.356,2.668 h 0.137 v -5.369 c 0,-2.102 -0.288,-3.638 -0.867,-4.609 -0.763,-1.248 -2.691,-1.871 -5.787,-1.871 -3.257,0 -5.198,0.599 -5.821,1.801 -0.278,0.556 -0.438,1.523 -0.485,2.912 v -0.003 z m -0.174,-23.872 11.259,7.38 -1.734,3.29 -12.404,-5.335 2.875,-5.335 v 0 z m 5.787,32.534 c -2.842,0 -4.76,0.368 -5.75,1.108 -0.763,0.556 -1.145,1.734 -1.145,3.535 0,2.079 0.485,3.417 1.456,4.02 0.994,0.599 2.865,0.9 5.613,0.9 3.002,0 5.034,-0.438 6.098,-1.315 0.763,-0.623 1.145,-1.777 1.145,-3.464 0,-1.687 -0.348,-2.865 -1.041,-3.464 -1.018,-0.877 -3.143,-1.315 -6.376,-1.315 v -0.003 z"
         id="path24" />
      <path
         class="st1"
         d="m 1279.436,105.159 v 6.065 h -12.645 v 16.595 c 0,1.503 0.114,2.564 0.348,3.186 0.368,1.041 1.419,1.56 3.153,1.56 1.734,0 2.795,-0.472 3.257,-1.419 0.368,-0.81 0.556,-2.239 0.556,-4.298 0,-0.301 -0.013,-0.74 -0.034,-1.315 h 6.721 v 1.904 c 0,2.611 -0.174,4.468 -0.519,5.58 -0.693,2.403 -2.149,4.02 -4.365,4.85 -1.503,0.556 -3.638,0.83 -6.41,0.83 -3.417,0 -5.854,-0.452 -7.31,-1.352 -1.871,-1.155 -2.969,-2.899 -3.29,-5.231 -0.094,-0.646 -0.137,-1.697 -0.137,-3.153 v -17.739 h -4.298 v -6.065 h 4.298 v -7.414 h 8.04 v 7.414 h 12.645 l -0.01,0.003 z"
         id="path25" />
      <path
         class="st1"
         d="m 1293.226,90.991 v 6.861 h -8.04 v -6.861 z m 0,14.168 v 33.123 h -8.04 v -33.123 z"
         id="path26" />
      <path
         class="st1"
         d="m 1330.783,105.159 v 47.327 h -8.04 v -19.055 l -0.137,-0.033 c -0.74,1.777 -1.71,3.039 -2.912,3.775 -1.64,1.018 -4.067,1.523 -7.277,1.523 -4.572,0 -7.795,-1.121 -9.666,-3.36 -1.503,-1.824 -2.38,-4.18 -2.634,-7.069 -0.208,-2.172 -0.311,-4.585 -0.311,-7.24 0,-5.011 0.438,-8.502 1.315,-10.463 1.734,-3.856 5.476,-5.787 11.226,-5.787 3.257,0 5.683,0.495 7.277,1.489 1.108,0.693 2.112,1.975 3.016,3.846 l 0.208,-0.07 -0.104,-4.887 h 8.04 v 0.003 z m -15.59,5.928 c -2.795,0 -4.666,0.532 -5.613,1.593 -0.763,0.853 -1.225,2.112 -1.386,3.775 -0.137,1.479 -0.208,3.13 -0.208,4.954 0,3.374 0.161,5.693 0.485,6.965 0.462,1.918 1.503,3.119 3.119,3.605 0.924,0.254 2.159,0.382 3.709,0.382 2.979,0 4.944,-0.669 5.891,-2.008 0.971,-1.386 1.456,-3.939 1.456,-7.658 0,-5.312 -0.556,-8.649 -1.663,-10.014 -0.877,-1.061 -2.805,-1.593 -5.787,-1.593 v 0 z"
         id="path27" />
      <path
         class="st1"
         d="m 1367.685,105.159 v 33.123 h -8.04 l 0.452,-5.683 -0.137,-0.033 c -0.669,1.734 -1.607,3.059 -2.805,3.983 -1.824,1.409 -4.458,2.112 -7.899,2.112 -4.99,0 -8.314,-1.617 -9.978,-4.85 -0.763,-1.479 -1.145,-3.615 -1.145,-6.41 v -22.245 h 8.04 v 20.337 c 0,2.356 0.208,3.903 0.623,4.642 0.763,1.386 2.507,2.079 5.231,2.079 3.535,0 5.831,-1.108 6.895,-3.327 0.485,-1.041 0.726,-2.922 0.726,-5.646 v -18.088 h 8.04 v 0.007 z"
         id="path28" />
      <path
         class="st1"
         d="m 1397.032,127.682 h 7.969 v 0.867 c 0,3.558 -0.934,6.085 -2.805,7.588 -1.456,1.155 -3.27,1.871 -5.439,2.149 -1.988,0.254 -4.11,0.382 -6.376,0.382 -3.648,0 -6.507,-0.318 -8.575,-0.954 -2.068,-0.636 -3.668,-1.68 -4.8,-3.136 -1.178,-1.503 -1.904,-3.558 -2.182,-6.169 -0.231,-2.149 -0.348,-4.445 -0.348,-6.895 0,-4.549 0.348,-7.829 1.041,-9.84 1.084,-3.119 3.304,-5.161 6.654,-6.132 1.894,-0.532 4.539,-0.797 7.936,-0.797 3.096,0 5.58,0.261 7.45,0.78 1.87,0.519 3.337,1.346 4.401,2.477 1.546,1.663 2.47,3.939 2.771,6.825 0.184,1.64 0.278,3.478 0.278,5.509 v 2.805 h -22.415 c -0.023,0.579 -0.034,1.018 -0.034,1.315 0,3.417 0.485,5.646 1.456,6.687 0.971,1.041 2.969,1.56 5.995,1.56 3.605,0 5.74,-0.556 6.41,-1.663 0.392,-0.623 0.599,-1.744 0.623,-3.36 l -0.01,0.003 z m 0.067,-9.493 c 0,-0.646 -0.013,-1.074 -0.034,-1.282 -0.023,-2.403 -0.405,-4.006 -1.145,-4.816 -0.623,-0.669 -1.513,-1.084 -2.668,-1.248 -0.924,-0.114 -2.022,-0.174 -3.29,-0.174 -2.216,0 -3.789,0.184 -4.713,0.556 -1.432,0.599 -2.263,2.008 -2.494,4.227 -0.047,0.556 -0.08,1.466 -0.104,2.738 h 14.449 v 0 z"
         id="path29" />
      <path
         class="st1"
         d="m 1439.232,114.273 h -7.762 c -0.161,-1.456 -0.428,-2.403 -0.797,-2.842 -0.415,-0.556 -1.225,-0.9 -2.427,-1.041 -0.646,-0.07 -1.777,-0.104 -3.394,-0.104 -2.979,0 -4.84,0.254 -5.58,0.763 -0.74,0.509 -1.108,1.583 -1.108,3.223 0,1.988 0.623,3.166 1.871,3.535 0.556,0.161 2.785,0.335 6.687,0.519 3.789,0.184 6.259,0.405 7.414,0.659 2.494,0.532 4.227,1.72 5.198,3.568 0.763,1.409 1.145,3.233 1.145,5.476 0,3.672 -1.018,6.353 -3.049,8.04 -1.362,1.108 -3.016,1.814 -4.954,2.112 -2.196,0.348 -4.723,0.519 -7.588,0.519 -4.435,0 -7.621,-0.368 -9.563,-1.108 -2.45,-0.9 -4.007,-2.437 -4.676,-4.609 -0.368,-1.155 -0.556,-2.865 -0.556,-5.128 h 8.247 c -0.023,0.509 -0.034,0.89 -0.034,1.145 0,1.687 0.462,2.818 1.386,3.394 0.81,0.485 2.668,0.726 5.58,0.726 3.119,0 5.161,-0.348 6.132,-1.041 0.763,-0.556 1.145,-1.64 1.145,-3.257 0,-1.617 -0.325,-2.725 -0.971,-3.327 -0.599,-0.556 -1.861,-0.843 -3.775,-0.867 -5.821,-0.07 -9.817,-0.415 -11.989,-1.041 -2.216,-0.623 -3.742,-1.801 -4.572,-3.535 -0.623,-1.269 -0.934,-3.083 -0.934,-5.439 0,-3.903 1.004,-6.527 3.016,-7.866 1.339,-0.877 3.036,-1.433 5.094,-1.663 2.125,-0.231 4.411,-0.348 6.861,-0.348 4.274,0 7.323,0.335 9.148,1.004 2.912,1.084 4.505,3.247 4.783,6.48 0.023,0.415 0.034,1.098 0.034,2.045 l -0.013,0.007 z"
         id="path30" />
    </g>
    <g
       id="g34">
      <path
         class="st0"
         d="m 581.342,103.325 c -4.679,6.52 -11.695,8.984 -19.323,7.999 -5.047,-0.124 -10.336,-1.476 -12.799,-6.647 -6.152,-16.367 1.232,-33.102 5.784,-47.997 2.092,-5.539 6.647,-11.447 13.291,-12.063 5.047,-0.248 9.355,3.936 11.695,8.12 2.092,5.292 2.838,6.915 3.923,13.83 0,0 0.72,3.427 1.001,4.016 0.04,0.251 0.033,0.428 0.137,0.683 -4.97,0.572 -9.717,0.382 -13.512,-2.684 -0.586,0.291 -1.617,1.386 -1.761,2.266 2.761,5.382 9.502,6.038 15.768,5.623 0.492,9.355 -1.349,18.606 -4.197,26.85 m 24.584,-33.132 c -4.411,-0.586 -10.56,0.984 -15.698,0.462 -0.1,-0.382 -0.144,-0.76 -0.187,-1.141 l -0.87,-4.723 c -1.004,-5.66 -2.634,-11.065 -5.215,-16.223 -3.354,-5.101 -8.652,-10.111 -15.437,-9.834 -8.1,1.212 -15.162,9.275 -17.984,16.494 -5.65,14.449 -9.419,27.884 -8.314,43.505 1.459,6.768 5.636,15.082 13.435,16.755 0,0 3.933,0.76 4.599,0.787 -0.067,0 -1.329,19.922 -1.329,19.922 l 1.322,1.911 c 6.761,1.322 14.576,-1.469 19.426,-5.877 0,-1.178 0,-3.233 -1.322,-4.117 -4.997,-3.528 -10.319,2.099 -14.583,3.273 0.281,-5.235 0.703,-9.506 1.587,-14.583 3.099,-0.05 5.69,-0.1 8.324,-0.679 7.688,-2.129 9.188,-5.593 13.154,-10.818 3.374,-8.85 3.946,-19.209 3.695,-28.785 5.586,-0.884 10.978,-1.044 15.681,-3.983 0.736,-0.884 -0.147,-1.617 -0.291,-2.353"
         id="path31" />
      <path
         class="st0"
         d="m 569.684,56.928 c 0.586,2.791 -0.884,5.292 -3.233,6.323 -1.911,1.028 -4.117,-0.884 -4.408,-2.648 -0.442,-2.939 2.058,-4.853 4.408,-6.172 1.469,0 3.233,0.884 3.233,2.497"
         id="path32" />
      <polygon
         class="st0"
         points="554.204,14.782 549.227,21.499 569.383,33.94 572.616,28.839 "
         id="polygon32" />
      <path
         class="st0"
         d="m 530.35,16.931 h -2.955 c -16.19,0 -18.379,12.033 -18.379,25.709 v 69.967 c 0,13.676 2.189,25.709 18.379,25.709 h 2.955 v -8.207 h -2.955 c -9.081,0 -9.081,-10.938 -9.081,-17.502 V 42.639 c 0,-6.564 0,-17.502 9.081,-17.502 h 2.955 V 16.93 Z"
         id="path33" />
      <path
         class="st0"
         d="m 682.631,25.134 h 2.955 c 9.081,0 9.081,10.938 9.081,17.502 v 69.967 c 0,6.564 0,17.502 -9.081,17.502 h -2.955 v 8.204 h 2.955 c 16.19,0 18.379,-12.033 18.379,-25.709 V 42.639 c 0,-13.676 -2.189,-25.709 -18.379,-25.709 h -2.955 z"
         id="path34" />
      <polygon
         class="st0"
         points="652.718,46.358 636.749,97.856 630.902,97.856 612.617,38.887 620.908,38.887 633.827,82.302 646.744,38.887 682.748,38.894 682.748,46.358 "
         id="polygon34" />
    </g>
  </g>
</svg>
